<?xml version="1.0" encoding="UTF-8"?><svg id="Layer_1" xmlns="http://www.w3.org/2000/svg" viewBox="0 0 20 16"><defs><style>.cls-1{fill:#e1e2d0;}</style></defs><path class="cls-1" d="M0,0V12H10.32c-.22-.67-.32-1.34-.32-2H4c0-1.1-.89-2-2-2V4c1.11,0,2-.89,2-2H14c0,1.11,.9,2,2,2v.06c.67,0,1.34,.12,2,.34V0H0M9,3c-1.7,.03-3,1.3-3,3s1.3,2.94,3,3c.38,0,.77-.08,1.14-.23,.27-1.1,.72-2.14,1.83-3.16-.12-1.33-1.38-2.64-2.97-2.61m7,2l2.25,2.25-2.25,2.25v-1.5c-1.85,0-3.06,1.96-2.24,3.62l-1.09,1.09c-1.76-2.66,.14-6.21,3.33-6.21v-1.5m0,11l-2.25-2.25,2.25-2.25v1.5c1.85,0,3.06-1.96,2.24-3.62l1.09-1.09c1.76,2.66-.14,6.21-3.33,6.21v1.5"/></svg>