<?xml version="1.0" encoding="UTF-8"?><svg id="Layer_1" xmlns="http://www.w3.org/2000/svg" viewBox="0 0 16 20"><defs><style>.cls-1{fill:#e1e2d0;}</style></defs><path class="cls-1" d="M14.4,10.75c0-1.38-1.12-2.5-2.5-2.5-.53,0-1.02,.16-1.4,.44v-.19c0-1.38-1.12-2.5-2.5-2.5s-2.5,1.12-2.5,2.5v.19c-.38-.28-.87-.44-1.4-.44-1.38,0-2.5,1.12-2.5,2.5,0,.99,.59,1.85,1.43,2.25-.84,.4-1.43,1.25-1.43,2.25,0,1.38,1.12,2.5,2.5,2.5,.53,0,1.02-.17,1.4-.44v.19c0,1.38,1.12,2.5,2.5,2.5s2.5-1.12,2.5-2.5v-.19c.38,.27,.87,.44,1.4,.44,1.38,0,2.5-1.12,2.5-2.5,0-1-.59-1.85-1.43-2.25,.84-.4,1.43-1.26,1.43-2.25m-6.4,4.75c-1.38,0-2.5-1.12-2.5-2.5s1.12-2.5,2.5-2.5,2.5,1.12,2.5,2.5-1.12,2.5-2.5,2.5m-1-11.5c0-.55,.45-1,1-1s1,.45,1,1-.45,1-1,1-1-.45-1-1M3,6c0-.55,.45-1,1-1s1,.45,1,1-.45,1-1,1-1-.45-1-1M1,4c-.55,0-1-.45-1-1s.45-1,1-1,1,.45,1,1-.45,1-1,1M4,1c0-.55,.45-1,1-1s1,.45,1,1-.45,1-1,1-1-.45-1-1m6,0c0-.55,.45-1,1-1s1,.45,1,1-.45,1-1,1-1-.45-1-1m6,2c0,.55-.45,1-1,1s-1-.45-1-1,.45-1,1-1,1,.45,1,1m-4,2c.55,0,1,.45,1,1s-.45,1-1,1-1-.45-1-1,.45-1,1-1Z"/></svg>